<svg xmlns="http://www.w3.org/2000/svg" width="1408" height="1408" viewBox="0 0 1408 1408">
  <path d="M1408 1112q0 27-10 70.5t-21 68.5q-21 50-122 106-94 51-186 51a385.8 385.8 0 0 1-52.5-3.5Q991 1401 959 1392t-47.5-14.5Q896 1372 856 1357t-49-18q-98-35-175-83-128-79-264.5-215.5T152 776q-48-77-83-175-3-9-18-49t-20.5-55.5Q25 481 16 449T3.5 391.5A385.8 385.8 0 0 1 0 339q0-92 51-186Q107 52 157 31q25-11 68.5-21T296 0q14 0 21 3 18 6 53 76 11 19 30 54t35 63.5q16 28.5 31 53.5 3 4 17.5 25t21.5 35.5q7 14.5 7 28.5 0 20-28.5 50a487.5 487.5 0 0 1-62 55 602.2 602.2 0 0 0-62 53Q331 525 331 543q0 9 5 22.5a218.3 218.3 0 0 0 8.5 20.5q3.5 7 14 24t11.5 19q76 137 174 235t235 174q2 1 19 11.5t24 14a218.3 218.3 0 0 0 20.5 8.5q13.5 5 22.5 5 18 0 46-28.5a602.2 602.2 0 0 0 53-62 487.5 487.5 0 0 1 55-62q30-28.5 50-28.5 14 0 28.5 7t35.5 21.5q21 14.5 25 17.5 25 15 53.5 31t63.5 35q35 19 54 30 70 35 76 53 3 7 3 21z"/>
</svg>
