<svg xmlns="http://www.w3.org/2000/svg" preserveAspectRatio="xMidYMid" viewBox="0 0 50 50"><path fill="#000" fill-rule="evenodd" d="M36.4 22l-5.6 5.5c-.4.4-.8.8-1.3 1 .3-1 .3-2 0-3l5.2-5.3c1.2-1 1.2-3 0-4.2l-.7-.8c-1.2-1-3-1-4.3 0l-5.2 5.3-.4.4c-.6.6-.8 1.5-.7 2.3v.6l.8 1 1 1 1 .6c.2.7 0 1.5-.6 2v.2c-1-.2-1.6-.6-2.2-1.3l-.8-.7c-.6-.6-1-1.4-1.2-2L21 24c-.2-1 0-2 .2-2.8 0-.3.2-.5.3-.7.2-.5.5-1 1-1.3l5.6-5.6c2-2 5.5-2 7.6 0l.8.8c2 2 2 5.4 0 7.5zm-21.2 7.7c-1 1.2-1 3 0 4.3l.8.7c1.2 1.2 3 1.2 4.2 0l5.3-5.2.4-.4c.5-.6.8-1.5.7-2.3V26l-.8-1-1-1-1-.6c-.3-.7 0-1.5.5-2l.2-.2c.7.2 1.5.6 2 1.2l.8.8c.7.6 1 1.3 1.3 2l.2.8c.2 1 0 2-.2 2.8l-.3.7c-.3.5-.6 1-1 1.3L22 36.4c-2.2 2-5.6 2-7.7 0l-.7-.8c-2-2-2-5.4 0-7.5l5.6-5.6 1.3-1c-.3 1-.3 2 0 3l-5.3 5.3z"/></svg>
