<svg xmlns="http://www.w3.org/2000/svg" viewBox="0 0 128 128"><path fill="#fff" d="M124 60h-4c0-8.8-7.2-16-16-16H88c-5.8 0-11 3.2-13.7 8-2.8-2.5-6.4-4-10.3-4s-7.5 1.5-10.3 4c-2.8-4.8-8-8-13.7-8H24c-8.8 0-16 7.2-16 16H4c-2.2 0-4 1.8-4 4s1.8 4 4 4h4c0 8.8 7.2 16 16 16h16c8.8 0 16-7.2 16-16v-4c0-4.4 3.6-8 8-8s8 3.6 8 8v4c0 8.8 7.2 16 16 16h16c8.8 0 16-7.2 16-16h4c2.2 0 4-1.8 4-4s-1.8-4-4-4zm-76 8c0 4.4-3.6 8-8 8H24c-4.4 0-8-3.6-8-8v-8c0-4.4 3.6-8 8-8h16c4.4 0 8 3.6 8 8v8zm64 0c0 4.4-3.6 8-8 8H88c-4.4 0-8-3.6-8-8v-8c0-4.4 3.6-8 8-8h16c4.4 0 8 3.6 8 8v8z"/></svg>
