<svg xmlns="http://www.w3.org/2000/svg" viewBox="0 0 512 512"><path fill="#E2E5E7" d="M128 0c-17.6 0-32 14.4-32 32v448c0 17.6 14.4 32 32 32h320c17.6 0 32-14.4 32-32V128L352 0H128z"/><path fill="#B0B7BD" d="M384 128h96L352 0v96c0 17.6 14.4 32 32 32z"/><path fill="#CAD1D8" d="M480 224l-96-96h96"/><path fill="#F15642" d="M416 416c0 8.8-7.2 16-16 16H48c-8.8 0-16-7.2-16-16V256c0-8.8 7.2-16 16-16h352c8.8 0 16 7.2 16 16v160z"/><g fill="#FFF"><path d="M101.7 303.2c0-4.3 3.4-9 8.7-9H140c16.6 0 31.6 11.3 31.6 32.6 0 20.2-15 31.5-31.6 31.5h-21.4v17c0 5.5-3.6 8.7-8.2 8.7-4.2 0-8.7-3.2-8.7-8.8v-72zm17 7.2v32H140c8.6 0 15.3-7.7 15.3-15.6 0-9-6.7-16.4-15.3-16.4h-21.4zM196.7 384c-4.3 0-9-2.3-9-8v-72.6c0-4.6 4.7-8 9-8H226c58.4 0 57 88.6 1 88.6h-30.3zm8-73v57.4H226c34.5 0 36-57.3 0-57.3h-21.3zM304 312v20.4h32.5c4.6 0 9.2 4.7 9.2 9s-4.6 7.8-9.2 7.8H304v27c0 4.3-3.3 7.8-7.8 7.8-5.6 0-9-3.5-9-8v-72.6c0-4.6 3.4-8 9-8h45c5.6 0 9 3.4 9 8 0 4-3.4 8.7-9 8.7h-37.3z"/></g><path fill="#CAD1D8" d="M400 432H96v16h304c8.8 0 16-7.2 16-16v-16c0 8.8-7.2 16-16 16z"/></svg>
