<svg xmlns="http://www.w3.org/2000/svg" viewBox="0 0 24 24"><g fill="#fff">
  <path d="M24 3c0-1.7-1.3-3-3-3-.6 0-1 .4-1 1s.4 1 1 1 1 .4 1 1v11.3c-1-.8-2.2-1.3-3.5-1.3-1.4 0-2.6.5-3.6 1.3-.8-.8-1.8-1.3-3-1.3s-2.2.5-3 1.3C8 13.5 7 13 5.6 13c-1.3 0-2.5.5-3.5 1.3V3c0-.6.4-1 1-1s1-.4 1-1-.4-1-1-1C1.3 0 0 1.3 0 3v15.5c0 3 2.5 5.5 5.5 5.5s5.5-2.5 5.5-5.5c0-1-.3-2.3-1.2-3.4.3-.6 1-1 2.2-1 1 0 1.8.6 2.2 1-1 1.2-1.2 2.6-1.2 3.5 0 3 2.5 5.5 5.5 5.5s5.5-2.5 5.5-5.5V3zM5.5 22c-2 0-3.5-1.6-3.5-3.5S3.6 15 5.5 15 9 16.6 9 18.5 7.4 22 5.5 22zm13 0c-2 0-3.5-1.6-3.5-3.5s1.6-3.5 3.5-3.5 3.5 1.6 3.5 3.5-1.6 3.5-3.5 3.5z"/><path d="M19 16v1c.6.3 1 1 1 1.5v.5h1v-.5c0-1.2-1-2.2-2-2.4zM6 16v1c.6.3 1 1 1 1.5v.5h1v-.5c0-1.2-1-2.2-2-2.4z"/>
</g></svg>
