<svg xmlns="http://www.w3.org/2000/svg" viewBox="0 0 245 42.5"><title>new_logo</title><path d="M277.1,210.6c0,7.6-5.2,15.1-15.5,15.1h-6.3V238H244.5v-22h17c6.5.1,6.5-10.6,0-10.5h-17v-10h17C271.9,195.6,277.1,203.1,277.1,210.6Zm-116.5,11h28.1v-9.3H160.6Zm0-26v10.1h29.6V195.6Zm11.5,32.3H160.6V238h29.6V227.9h-18Zm49.7-32.3h-9.8L197.3,238h11.5l2.6-8.5,2.4-9.5,3.1-12.4h.3l2.9,12.4,2.6,9.5,2.8,8.5h11.5ZM323,224.4v-15l-6.8-13.8H303.7l11.9,21.3L303.7,238h12.5Zm8.7-7.8,11.7-21H330.9l-7.3,14.3Zm-8.1,7.3,7.3,14.2h12.5l-11.7-20.9ZM103.7,195.6H98.4V238h10.7V203.9Zm31.3,0H119v10h16.3c3.6,0,5.3,1.7,5.3,4.5v13.3c0,2.8-1.7,4.6-5.3,4.6h-5.7l-5.4-8.3H119V228h0V238h15.9c8.5.1,16.5-4.2,16.5-14V209.8C151.4,199.9,143.5,195.6,134.9,195.6Zm155.1,0h-4.7V238h10.7V204.8ZM323.5,210l-7.3-14.5H303.7l11.9,21.3L303.7,238h12.5l7.3-14.5,7.4,14.5h12.5l-11.9-21.2,11.9-21.3H330.9Z" transform="translate(-98.4 -195.5)" fill="#fff"/></svg>
